<?xml version="1.0" standalone="no"?>
<!DOCTYPE svg PUBLIC "-//W3C//DTD SVG 20010904//EN"
 "http://www.w3.org/TR/2001/REC-SVG-20010904/DTD/svg10.dtd">
<svg version="1.0" xmlns="http://www.w3.org/2000/svg"
 width="40.000000pt" height="40.000000pt" viewBox="0 0 40.000000 40.000000"
 preserveAspectRatio="xMidYMid meet">

<g transform="translate(0.000000,40.000000) scale(0.100000,-0.100000)"
fill="#000000" stroke="none">
<path d="M100 355 c0 -12 18 -15 100 -15 82 0 100 3 100 15 0 12 -18 15 -100
15 -82 0 -100 -3 -100 -15z"/>
<path d="M70 301 c-13 -25 -13 -131 0 -165 9 -26 10 -26 130 -26 120 0 121 0
130 26 13 34 13 140 0 165 -10 17 -22 19 -130 19 -108 0 -120 -2 -130 -19z
m198 -83 l-3 -93 -65 0 -65 0 -3 93 -3 92 71 0 71 0 -3 -92z m-181 -35 c-2
-21 -4 -4 -4 37 0 41 2 58 4 38 2 -21 2 -55 0 -75z m20 -5 c-2 -24 -4 -7 -4
37 0 44 2 63 4 43 2 -21 2 -57 0 -80z m190 0 c-2 -24 -4 -7 -4 37 0 44 2 63 4
43 2 -21 2 -57 0 -80z m20 5 c-2 -21 -4 -4 -4 37 0 41 2 58 4 38 2 -21 2 -55
0 -75z"/>
<path d="M140 220 l0 -80 60 0 60 0 0 80 0 80 -60 0 -60 0 0 -80z m94 39 c-3
-6 -2 -14 5 -18 7 -5 -4 -22 -30 -47 -38 -35 -41 -37 -36 -14 4 15 1 31 -9 41
-24 27 -7 49 38 49 26 0 37 -4 32 -11z"/>
<path d="M170 251 c0 -17 31 -41 43 -34 8 5 8 8 0 10 -7 3 -9 11 -6 19 3 9 -2
14 -16 14 -12 0 -21 -4 -21 -9z"/>
<path d="M27 284 c-11 -11 -9 -134 2 -134 14 0 23 80 14 113 -5 16 -12 25 -16
21z"/>
<path d="M356 255 c-8 -40 2 -105 15 -105 12 0 12 127 0 134 -5 3 -12 -10 -15
-29z"/>
<path d="M106 84 c-12 -31 -4 -34 94 -34 l100 0 0 25 c0 25 0 25 -94 25 -76 0
-95 -3 -100 -16z"/>
<path d="M100 30 c0 -6 40 -10 100 -10 60 0 100 4 100 10 0 6 -40 10 -100 10
-60 0 -100 -4 -100 -10z"/>
</g>
</svg>
